<?xml version="1.0" encoding="UTF-8" standalone="no"?>
<svg
   width="16"
   height="16"
   fill="currentColor"
   class="bi bi-file-image"
   version="1.1"
   id="svg2"
   sodipodi:docname="file-figure.svg"
   inkscape:version="1.4 (86a8ad7, 2024-10-11)"
   xmlns:inkscape="http://www.inkscape.org/namespaces/inkscape"
   xmlns:sodipodi="http://sodipodi.sourceforge.net/DTD/sodipodi-0.dtd"
   xmlns="http://www.w3.org/2000/svg"
   xmlns:svg="http://www.w3.org/2000/svg">
  <defs
     id="defs2" />
  <sodipodi:namedview
     id="namedview2"
     pagecolor="#ffffff"
     bordercolor="#666666"
     borderopacity="1.0"
     inkscape:showpageshadow="2"
     inkscape:pageopacity="0.0"
     inkscape:pagecheckerboard="0"
     inkscape:deskcolor="#d1d1d1"
     inkscape:zoom="8.9824658"
     inkscape:cx="-2.9501921"
     inkscape:cy="7.6259683"
     inkscape:window-width="1920"
     inkscape:window-height="1001"
     inkscape:window-x="-9"
     inkscape:window-y="-9"
     inkscape:window-maximized="1"
     inkscape:current-layer="svg2" />
  <path
     d="m 8.002,3.611328 a 1.5,1.5 0 1 1 -3,0 1.5,1.5 0 0 1 3,0 z"
     id="path1" />
  <path
     d="M 12.97412,0 H 3.109376 c -1.1045695,0 -2,0.8954305 -2,2 v 7.6342799 c 0,1.1045691 0.8954305,2.0000001 2,2.0000001 h 9.864744 c 1.104569,0 2,-0.895431 2,-2.0000001 V 2 c 0,-1.1045695 -0.895431,-2 -2,-2 z M 2.109376,2 c 0,-0.5522847 0.4477153,-1 1,-1 h 9.864744 c 0.552285,0 1,0.4477153 1,1 v 4.5527359 l -2.027336,-2.166496 c -0.21846,-0.2181234 -0.580438,-0.1881173 -0.76,0.063 L 8,7.5527359 5.334024,6.1692399 c -0.1969626,-0.1179405 -0.4489327,-0.086599 -0.611,0.076 l -2.613648,2.307496 z"
     id="path2"
     sodipodi:nodetypes="ssssssssssssscccccccs" />
  <path
     style="opacity:1;fill:#800080;fill-opacity:0.980392;stroke:#000000;stroke-width:1;stroke-linecap:round;stroke-dasharray:none;stroke-opacity:0.980392;paint-order:markers stroke fill"
     d="M 1.609376,13.164537 H 14.377954"
     id="path3" />
  <path
     style="opacity:1;fill:#800080;fill-opacity:0.980392;stroke:#000000;stroke-width:0.999999;stroke-linecap:round;stroke-dasharray:none;stroke-opacity:0.980392;paint-order:markers stroke fill"
     d="M 1.6093755,15.084945 H 8.2350341"
     id="path4" />
</svg>
