<?xml version="1.0" encoding="UTF-8" standalone="no"?>
<svg
   width="16"
   height="16"
   fill="currentColor"
   class="bi bi-list-ul"
   version="1.1"
   id="svg1"
   sodipodi:docname="list-check.svg"
   inkscape:version="1.4 (86a8ad7, 2024-10-11)"
   xmlns:inkscape="http://www.inkscape.org/namespaces/inkscape"
   xmlns:sodipodi="http://sodipodi.sourceforge.net/DTD/sodipodi-0.dtd"
   xmlns="http://www.w3.org/2000/svg"
   xmlns:svg="http://www.w3.org/2000/svg">
  <defs
     id="defs1" />
  <sodipodi:namedview
     id="namedview1"
     pagecolor="#ffffff"
     bordercolor="#666666"
     borderopacity="1.0"
     inkscape:showpageshadow="2"
     inkscape:pageopacity="0.0"
     inkscape:pagecheckerboard="0"
     inkscape:deskcolor="#d1d1d1"
     inkscape:zoom="69.915183"
     inkscape:cx="5.7069149"
     inkscape:cy="10.720132"
     inkscape:window-width="1920"
     inkscape:window-height="1001"
     inkscape:window-x="-9"
     inkscape:window-y="-9"
     inkscape:window-maximized="1"
     inkscape:current-layer="svg1" />
  <path
     d="m 5.3724744,4.8747041 c 0,-0.280092 0.2270595,-0.5071515 0.5071515,-0.5071515 h 8.7241751 c 0.676202,0 0.676202,1.014303 0,1.014303 H 5.8796259 c -0.280092,0 -0.5071515,-0.2270595 -0.5071515,-0.5071515 z"
     id="path3"
     style="stroke-width:1"
     sodipodi:nodetypes="ssssss" />
  <path
     d="m 5.3724744,10.782091 c 3e-7,-0.280092 0.2270597,-0.507151 0.5071515,-0.507151 h 8.7241751 c 0.676202,0 0.676202,1.014303 0,1.014303 H 5.8796259 c -0.2800922,0 -0.5071518,-0.22706 -0.5071515,-0.507152 z"
     id="path2"
     style="stroke-width:1"
     sodipodi:nodetypes="ssssss" />
  <rect
     style="fill:none;stroke:#000000;stroke-width:0.800001;-inkscape-stroke:none;paint-order:markers stroke fill"
     id="rect7"
     width="2.7104931"
     height="2.7104931"
     x="1.3601546"
     y="3.3193531" />
  <rect
     style="fill:none;stroke:#000000;stroke-width:0.800001;-inkscape-stroke:none;paint-order:markers stroke fill"
     id="rect8"
     width="2.7104931"
     height="2.7104931"
     x="1.3601546"
     y="9.4410563" />
  <path
     style="fill:none;stroke:#000000;stroke-width:0.8;paint-order:markers stroke fill;stroke-dasharray:none;stroke-linecap:round"
     d="M 0.92969792,8.9680091 4.5197622,12.558073"
     id="path8" />
  <path
     style="fill:none;stroke:#000000;stroke-width:0.8;stroke-linecap:round;stroke-dasharray:none;paint-order:markers stroke fill"
     d="M 4.519762,8.9680089 0.92969811,12.558073"
     id="path9" />
</svg>
