<?xml version="1.0" encoding="UTF-8" standalone="no"?>
<svg
   height="16"
   overflow="scroll"
   width="16"
   version="1.1"
   id="svg5"
   sodipodi:docname="latex.svg"
   inkscape:version="1.4 (86a8ad7, 2024-10-11)"
   xmlns:inkscape="http://www.inkscape.org/namespaces/inkscape"
   xmlns:sodipodi="http://sodipodi.sourceforge.net/DTD/sodipodi-0.dtd"
   xmlns="http://www.w3.org/2000/svg"
   xmlns:svg="http://www.w3.org/2000/svg">
  <defs
     id="defs5" />
  <sodipodi:namedview
     id="namedview5"
     pagecolor="#ffffff"
     bordercolor="#666666"
     borderopacity="1.0"
     inkscape:showpageshadow="2"
     inkscape:pageopacity="0.0"
     inkscape:pagecheckerboard="0"
     inkscape:deskcolor="#d1d1d1"
     inkscape:zoom="33.149166"
     inkscape:cx="10.166168"
     inkscape:cy="9.2762515"
     inkscape:window-width="1920"
     inkscape:window-height="1001"
     inkscape:window-x="-9"
     inkscape:window-y="-9"
     inkscape:window-maximized="1"
     inkscape:current-layer="svg5" />
  <path
     id="path5"
     d="M 13.426739,7.1230109 14.233098,5.9458444 C 14.3567,5.7574979 14.556819,5.5691512 15.080657,5.5632653 V 5.3866903 H 13.67983 v 0.176575 c 0.235433,0.00589 0.364921,0.1353741 0.364921,0.2707482 0,0.058858 -0.01177,0.07063 -0.05297,0.1353741 0,0 -0.670985,0.9888202 -0.670985,0.9888202 l -0.75339,-1.13008 c -0.01177,-0.017657 -0.0412,-0.064744 -0.0412,-0.088287 0,-0.07063 0.129489,-0.1706892 0.376694,-0.1765751 v -0.176575 c -0.200119,0.017657 -0.629784,0.017657 -0.853446,0.017657 -0.18246,0 -0.547382,-0.00589 -0.765158,-0.017657 v 0.176575 h 0.11183 c 0.323722,0 0.435553,0.041201 0.547383,0.206004 0,0 1.077108,1.6303759 1.077108,1.6303759 l -0.959391,1.4184861 c -0.0824,0.1177157 -0.258977,0.3884641 -0.84756,0.3884641 v 0.182461 h 1.400828 v -0.182461 c -0.270748,-0.00589 -0.370807,-0.1648029 -0.370807,-0.2707484 0,-0.052973 0.01766,-0.076515 0.05885,-0.1412598 l 0.829903,-1.2301392 0.929961,1.4008281 c 0.01177,0.023547 0.02943,0.047089 0.02943,0.064744 0,0.07063 -0.129488,0.1706894 -0.382579,0.1765749 v 0.182461 c 0.206004,-0.017657 0.63567,-0.017657 0.853446,-0.017657 0.247205,0 0.517953,0.00589 0.765159,0.017657 V 9.2065958 H 15.21603 c -0.306064,0 -0.429666,-0.029428 -0.553269,-0.2118896 z m -1.771636,2.0776994 h -0.147146 c -0.147146,0.9005317 -0.28252,1.3301977 -1.288998,1.3301977 H 9.4420295 c -0.276634,0 -0.2884051,-0.0412 -0.2884051,-0.235433 V 8.7298433 h 0.5238393 c 0.5709253,0 0.6356693,0.1883465 0.6356693,0.6886426 h 0.147146 v -1.55386 h -0.147146 c 0,0.5002959 -0.06474,0.682757 -0.6356693,0.682757 H 9.1536244 V 7.1406684 c 0,-0.1942324 0.011771,-0.2354331 0.2884051,-0.2354331 h 0.7533865 c 0.900532,0 1.053564,0.3237208 1.147738,1.1418515 h 0.147145 L 11.325496,6.7286602 H 8.02943 v 0.1765751 h 0.1353742 c 0.4532089,0 0.464981,0.064744 0.464981,0.2766341 v 3.0724046 c 0,0.21189 -0.011771,0.276634 -0.464981,0.276634 H 8.02943 v 0.182461 h 3.378468 z M 8.5002965,5.4220053 H 4.9158249 c 0,0 -0.1059456,1.3184266 -0.1059456,1.3184266 H 4.9511396 C 5.033541,5.7928129 5.121829,5.5985803 6.0105891,5.5985803 c 0.1059451,0 0.2589769,0 0.3178352,0.011771 0.1236027,0.023545 0.1236027,0.088287 0.1236027,0.2236615 v 3.0900624 c 0,0.2001186 0,0.28252 -0.6180123,0.28252 H 5.5985809 v 0.182461 c 0.2413193,-0.017657 0.8357885,-0.017657 1.1065369,-0.017657 0.2707481,0 0.8769888,0 1.1183076,0.017657 V 9.2065948 H 7.5879921 c -0.6180118,0 -0.6180118,-0.082401 -0.6180118,-0.2825195 V 5.8340135 c 0,-0.1177167 0,-0.2001181 0.1059446,-0.2236616 0.064741,-0.011771 0.2236622,-0.011771 0.3354923,-0.011771 0.8828757,0 0.9711627,0.1942327 1.0535641,1.1418518 h 0.1471463 c 0,0 -0.1118311,-1.3184266 -0.1118311,-1.3184274 z M 3.7857446,5.3808046 c -0.023543,-0.07063 -0.035315,-0.094174 -0.1118309,-0.094174 -0.076516,0 -0.094174,0.023541 -0.1177167,0.094174 L 2.6085779,7.7822243 c -0.041201,0.1000591 -0.1118306,0.28252 -0.4767525,0.28252 v 0.147146 h 0.9123042 v -0.147146 c -0.1824609,0 -0.2942916,-0.082401 -0.2942916,-0.2001184 0,-0.029429 0.00589,-0.041201 0.017657,-0.082401 0,0 0.2001183,-0.5061817 0.2001183,-0.5061817 H 4.133008 l 0.2354332,0.6003551 c 0.011771,0.023541 0.023547,0.052973 0.023547,0.07063 0,0.1177167 -0.2236617,0.1177167 -0.3354922,0.1177167 V 8.2118903 H 5.2160044 V 8.0647443 H 5.133603 c -0.276634,0 -0.3060631,-0.041201 -0.3472638,-0.1589173 0,0 -1.0005918,-2.5250224 -1.0005921,-2.5250224 z M 3.5503113,5.7986985 4.0741504,7.1288969 H 3.0264721 Z M 3.8858038,7.8763977 H 3.7386579 C 3.6797997,8.4767524 3.5973979,9.2065958 2.5614914,9.2065958 H 2.0847387 c -0.276634,0 -0.2884058,-0.041199 -0.2884058,-0.2354333 V 5.8457853 c 0,-0.2001184 0,-0.28252 0.5532684,-0.28252 h 0.1942326 v -0.176575 c -0.2118901,0.017657 -0.741615,0.017657 -0.9829343,0.017657 -0.2295473,0 -0.68864229,0 -0.88876065,-0.017657 v 0.176575 h 0.13537412 c 0.45320923,0 0.46498073,0.064744 0.46498073,0.2766342 v 3.0900623 c 0,0.2118901 -0.011771,0.276634 -0.46498073,0.276634 H 0.67213895 v 0.182461 H 3.7268861 Z"
     style="stroke-width:0.15;stroke:#000000;stroke-dasharray:none" />
</svg>
