<?xml version="1.0" encoding="UTF-8" standalone="no"?>
<svg
   width="18"
   height="6.5281854"
   version="1.2"
   viewBox="0 0 8 6.1655084"
   id="svg1"
   sodipodi:docname="NaLE.svg"
   inkscape:version="1.4.2 (f4327f4, 2025-05-13)"
   xmlns:inkscape="http://www.inkscape.org/namespaces/inkscape"
   xmlns:sodipodi="http://sodipodi.sourceforge.net/DTD/sodipodi-0.dtd"
   xmlns="http://www.w3.org/2000/svg"
   xmlns:svg="http://www.w3.org/2000/svg">
  <defs
     id="defs1" />
  <sodipodi:namedview
     id="namedview1"
     pagecolor="#ffffff"
     bordercolor="#cccccc"
     borderopacity="1"
     inkscape:showpageshadow="0"
     inkscape:pageopacity="1"
     inkscape:pagecheckerboard="0"
     inkscape:deskcolor="#d1d1d1"
     inkscape:zoom="19.003097"
     inkscape:cx="8.709107"
     inkscape:cy="5.6043498"
     inkscape:window-width="1920"
     inkscape:window-height="1017"
     inkscape:window-x="-8"
     inkscape:window-y="-8"
     inkscape:window-maximized="1"
     inkscape:current-layer="svg1" />
  <g
     data-mml-node="TeXAtom"
     data-mjx-texclass="ORD"
     id="g3"
     style="fill:#000000;stroke:#000000;stroke-width:0"
     transform="matrix(0.00524651,0,0,-0.00524651,-3.2149155,5.0212802)">
    <g
       data-mml-node="mi"
       id="g2"
       style="stroke-width:0">
      <path
         id="use1"
         d="m 343,705 q 15,0 15,-7 2,-2 12,-40 10,-38 41,-134 31,-96 73,-205 52,-145 106,-237 l 5,-9 20,79 q 31,122 68,255 46,164 69,230 23,66 47,90 53,53 138,61 2,0 10,0 8,0 11,1 h 4 q 17,0 17,-24 0,-43 -28,-73 -9,-9 -27,-9 -36,-2 -65,-11 -29,-9 -41,-18 -12,-9 -15,-15 Q 784,608 708,322 632,36 631,15 q 0,-1 -1,0 0,2 -1,0 -1,-1 -1,-3 -7,-16 -27,-29 -20,-13 -41,-14 -10,0 -14,3 -4,3 -16,21 -46,74 -72,130 -26,56 -60,149 -46,120 -84,242 l -8,21 v -1 q 0,-1 -10,-46 Q 286,443 272,379 258,315 234,239 210,163 185,100 160,37 127,-7 94,-51 61,-50 34,-50 4,-34 -26,-18 -27,8 -27,33 -12,61 3,89 18,90 21,90 36,77 51,64 87,57 h 5 q 17,0 31,21 14,21 39,95 44,126 70,244 26,118 33,182 7,64 11,68 8,14 28,26 20,12 39,12 z"
         style="stroke-width:0" />
    </g>
  </g>
  <g
     data-mml-node="mtext"
     transform="matrix(0.00524651,0,0,-0.00524651,1.1852705,5.0212802)"
     id="g4"
     style="fill:#000000;stroke:#000000;stroke-width:0">
    <path
       id="use2"
       d="m 137,305 q 0,0 -22,0 -22,0 -37,15 -15,15 -15,39 0,35 34,62 34,27 121,27 73,0 118,-32 45,-32 60,-76 5,-14 5,-31 0,-17 1,-115 v -70 q 0,-48 5,-66 5,-18 21,-18 15,0 20,16 5,16 5,53 v 36 h 40 V 106 Q 492,66 490,59 481,29 455,12 429,-5 400,-6 371,-7 353,12 335,31 329,54 v 4 l -2,-3 q -2,-3 -5,-6 -3,-3 -8,-9 -5,-6 -12,-11 -7,-5 -15,-12 -8,-7 -18,-11 -10,-4 -22,-8 -12,-4 -26,-6 -14,-2 -31,-3 -60,0 -108,31 -48,31 -48,87 0,21 7,40 7,19 27,41 20,22 48,37 28,15 78,28 50,13 110,15 h 14 v 22 q 0,34 -6,50 -22,71 -97,71 -18,0 -34,-1 -16,-1 -25,-4 -9,-3 -8,-3 22,-15 22,-44 0,-25 -16,-39 z M 126,106 q 0,-31 24,-55 24,-24 59,-25 38,0 67,23 29,23 39,60 2,7 3,66 0,58 -1,58 -8,0 -21,-1 -13,-1 -45,-9 -32,-8 -58,-20 -26,-12 -46,-37 -20,-25 -21,-60 z"
       style="stroke-width:0" />
  </g>
  <g
     data-mml-node="mi"
     transform="matrix(0.00524651,0,0,-0.00524651,3.8085249,5.0212802)"
     id="g5"
     style="fill:#000000;stroke:#000000;stroke-width:0">
    <path
       id="use3"
       d="m 228,637 q -34,0 -36,4 -1,2 -1,8 0,24 11,33 2,1 15,1 54,-3 127,-3 141,0 162,3 h 12 q 6,-6 6,-9 0,-3 -2,-18 -5,-15 -9,-19 h -38 q -69,-1 -81,-9 -7,-4 -14,-28 Q 373,576 313,336 297,271 279,198 261,125 252,88 l -9,-36 q 0,-4 9,-4 9,0 59,-2 h 17 q 32,0 51,1 19,1 49,7 30,6 50,18 20,12 44,34 24,22 42,55 16,30 30,67 14,37 17,42 5,3 17,3 h 13 q 6,-9 6,-11 0,-2 -20,-59 Q 607,146 583,83 559,20 557,9 555,4 553,3 551,2 537,0 523,-2 494,-1 483,-1 418,-1 353,-1 294,0 H 116 q -84,0 -84,10 0,7 2,14 5,19 10,21 4,1 15,1 h 6 q 27,0 60,3 14,3 19,12 3,4 72,278 69,274 69,289 0,7 -57,9 z"
       style="stroke-width:0" />
  </g>
  <g
     data-mml-node="TeXAtom"
     data-mjx-texclass="ORD"
     transform="matrix(0.00524651,0,0,-0.00524651,7.3813974,5.0212802)"
     id="g7"
     style="fill:#000000;stroke:#000000;stroke-width:0">
    <g
       data-mml-node="mi"
       id="g6"
       style="stroke-width:0">
      <path
         id="use4"
         d="m 12,666 q 0,9 12,17 h 558 q 8,-3 11,-11 v -84 q 0,-74 -2,-86 -2,-12 -16,-12 -8,0 -12,5 -4,5 -8,22 -3,39 -38,73 -31,33 -72,44 -41,11 -105,14 h -58 q -16,-12 -18,-28 -2,-16 -4,-128 V 370 h 17 q 52,5 81,21 29,16 46,48 16,41 16,67 0,23 16,23 9,0 15,-8 4,-4 4,-160 0,-28 0,-63 0,-35 1,-45 0,-36 -3,-46 -3,-10 -16,-10 -17,-1 -17,20 0,23 -14,53 -29,58 -122,65 H 260 V 201 q 1,-27 1,-67 1,-61 3,-73 2,-12 14,-23 3,-2 4,-3 h 49 q 69,0 118,15 122,43 153,129 3,24 20,24 7,0 12,-6 5,-6 6,-14 -2,-2 -16,-88 Q 610,9 604,3 l -4,-4 H 24 q -12,6 -12,17 0,19 39,19 41,3 46,17 5,8 5,289 0,281 -5,291 -6,13 -46,16 -39,0 -39,18 z M 137,341 q 0,-210 -1,-252 -1,-42 -6,-52 -1,-1 -1,-2 h 106 q -2,6 -4,13 l -5,13 v 562 l 5,12 4,13 H 129 q 3,-7 4,-10 1,-3 2,-35 1,-32 2,-86 1,-54 0,-176 z m 420,262 v 45 h -53 q 0,-2 11,-9 12,-5 27,-20 z M 420,317 v 80 l -14,-14 q -12,-13 -26,-20 l -14,-8 q 7,-5 16,-9 18,-13 27,-18 z m 162,-256 4,27 q -1,0 -4,-5 -25,-22 -56,-37 l -15,-9 31,-2 h 35 q 0,1 1,4 1,3 2,10 1,7 2,12 z"
         style="stroke-width:0" />
    </g>
  </g>
  <rect
     style="fill:#000000;stroke:none;stroke-width:0.892386;stroke-linejoin:round;paint-order:markers fill stroke"
     id="rect1"
     width="0.21375911"
     height="4.3397856"
     x="11.142812"
     y="0.93221861" />
</svg>
