<?xml version="1.0" encoding="UTF-8" standalone="no"?>
<svg
   width="16"
   height="16"
   fill="currentColor"
   class="bi bi-text-paragraph"
   viewBox="0 0 16 16"
   version="1.1"
   id="svg1"
   sodipodi:docname="paragraph.svg"
   inkscape:version="1.4 (86a8ad7, 2024-10-11)"
   xmlns:inkscape="http://www.inkscape.org/namespaces/inkscape"
   xmlns:sodipodi="http://sodipodi.sourceforge.net/DTD/sodipodi-0.dtd"
   xmlns="http://www.w3.org/2000/svg"
   xmlns:svg="http://www.w3.org/2000/svg">
  <defs
     id="defs1" />
  <sodipodi:namedview
     id="namedview1"
     pagecolor="#ffffff"
     bordercolor="#666666"
     borderopacity="1.0"
     inkscape:showpageshadow="2"
     inkscape:pageopacity="0.0"
     inkscape:pagecheckerboard="0"
     inkscape:deskcolor="#d1d1d1"
     inkscape:zoom="24.71875"
     inkscape:cx="3.4386852"
     inkscape:cy="3.6207332"
     inkscape:window-width="1920"
     inkscape:window-height="1001"
     inkscape:window-x="-9"
     inkscape:window-y="-9"
     inkscape:window-maximized="1"
     inkscape:current-layer="svg1" />
  <path
     id="path5"
     d="M 2,12.5 A 0.5,0.5 0 0 1 2.5,12 h 11 a 0.5,0.5 0 0 1 0,1 H 2.5 A 0.5,0.5 0 0 1 2,12.5 Z m 0,-3 A 0.5,0.5 0 0 1 2.5,9 h 11 a 0.5,0.5 0 0 1 0,1 H 2.5 A 0.5,0.5 0 0 1 2,9.5 Z m 0,-3 A 0.5,0.5 0 0 1 2.5,6 h 11 a 0.5,0.5 0 0 1 0,1 H 2.5 A 0.5,0.5 0 0 1 2,6.5 Z m 4,-3 A 0.5,0.5 0 0 1 6.5,3 h 7 a 0.5,0.5 0 0 1 0,1 h -7 A 0.5,0.5 0 0 1 6,3.5 Z" />
</svg>
