<?xml version="1.0" encoding="UTF-8" standalone="no"?>
<!-- Uploaded to: SVG Repo, www.svgrepo.com, Generator: SVG Repo Mixer Tools -->

<svg
   width="800px"
   height="800px"
   viewBox="0 0 24 24"
   fill="none"
   version="1.1"
   id="svg2"
   sodipodi:docname="table-insert-above.svg"
   inkscape:version="1.4 (86a8ad7, 2024-10-11)"
   xmlns:inkscape="http://www.inkscape.org/namespaces/inkscape"
   xmlns:sodipodi="http://sodipodi.sourceforge.net/DTD/sodipodi-0.dtd"
   xmlns="http://www.w3.org/2000/svg"
   xmlns:svg="http://www.w3.org/2000/svg">
  <defs
     id="defs2" />
  <sodipodi:namedview
     id="namedview2"
     pagecolor="#ffffff"
     bordercolor="#666666"
     borderopacity="1.0"
     inkscape:showpageshadow="2"
     inkscape:pageopacity="0.0"
     inkscape:pagecheckerboard="0"
     inkscape:deskcolor="#d1d1d1"
     inkscape:zoom="0.34957592"
     inkscape:cx="163.05471"
     inkscape:cy="333.26095"
     inkscape:window-width="1920"
     inkscape:window-height="1001"
     inkscape:window-x="-9"
     inkscape:window-y="-9"
     inkscape:window-maximized="1"
     inkscape:current-layer="svg2" />
  <path
     d="m 21.741091,9.2407719 c 0.489074,0 0.885554,0.396491 0.885554,0.8855531 V 20.162601 C 22.626645,22.281932 20.908589,24 18.789245,24 H 5.2107548 c -2.1193064,0 -3.8374,-1.718068 -3.8374,-3.837399 V 10.126325 c 0,-0.4890621 0.3964934,-0.8855531 0.8855548,-0.8855531 z M 14.361476,11.01188 H 9.6385233 v 4.722952 H 14.361476 Z M 9.6385233,22.228893 H 14.361476 V 17.50594 H 9.6385233 Z M 16.132585,11.01188 v 4.722952 h 4.722952 V 11.01188 Z m 0,6.49406 v 4.722953 h 2.65666 c 1.141184,0 2.066292,-0.925108 2.066292,-2.066292 V 17.50594 Z m -12.988122,0 v 2.656661 c 0,1.141184 0.9251091,2.066292 2.0662919,2.066292 H 7.8674165 V 17.50594 Z M 7.8674165,15.734832 V 11.01188 H 3.144463 v 4.722952 z"
     fill="#212121"
     id="path1"
     style="stroke-width:1.19688" />
  <path
     d="m 15.071972,4.8430786 c 0.489073,0 0.885553,-0.3964922 0.885553,-0.8855547 0,-0.4890612 -0.39648,-0.8855534 -0.885553,-0.8855534 H 8.9280277 c -0.4890612,0 -0.8855534,0.3964922 -0.8855534,0.8855534 0,0.4890625 0.3964922,0.8855547 0.8855534,0.8855547 z"
     fill="#212121"
     id="path2"
     style="stroke-width:1.19688"
     sodipodi:nodetypes="sssssss" />
  <path
     d="M 12.885554,0.88555277 C 12.885554,0.39647955 12.489061,-7e-7 11.999999,-7e-7 c -0.489062,0 -0.885553,0.39648025 -0.885553,0.88555347 V 7.0294963 c 0,0.4890611 0.396491,0.8855535 0.885553,0.8855535 0.489062,0 0.885555,-0.3964924 0.885555,-0.8855535 z"
     fill="#212121"
     id="path3"
     style="stroke-width:1.19688"
     sodipodi:nodetypes="sssssss" />
</svg>
