<?xml version="1.0" encoding="UTF-8" standalone="no"?>
<svg
   width="16"
   height="16"
   fill="currentColor"
   class="bi bi-table"
   version="1.1"
   id="svg1"
   sodipodi:docname="table.svg"
   inkscape:version="1.4 (86a8ad7, 2024-10-11)"
   xmlns:inkscape="http://www.inkscape.org/namespaces/inkscape"
   xmlns:sodipodi="http://sodipodi.sourceforge.net/DTD/sodipodi-0.dtd"
   xmlns="http://www.w3.org/2000/svg"
   xmlns:svg="http://www.w3.org/2000/svg">
  <defs
     id="defs1" />
  <sodipodi:namedview
     id="namedview1"
     pagecolor="#ffffff"
     bordercolor="#666666"
     borderopacity="1.0"
     inkscape:showpageshadow="2"
     inkscape:pageopacity="0.0"
     inkscape:pagecheckerboard="0"
     inkscape:deskcolor="#d1d1d1"
     inkscape:zoom="34.957592"
     inkscape:cx="15.704743"
     inkscape:cy="10.598556"
     inkscape:window-width="1920"
     inkscape:window-height="1001"
     inkscape:window-x="-9"
     inkscape:window-y="-9"
     inkscape:window-maximized="1"
     inkscape:current-layer="svg1" />
  <path
     d="M 0.77236442,2.5792733 A 1.8069089,1.8069089 0 0 1 2.5792733,0.77236442 H 13.420727 A 1.8069089,1.8069089 0 0 1 15.227635,2.5792733 V 13.420727 a 1.8069089,1.8069089 0 0 1 -1.806908,1.806908 H 2.5792733 A 1.8069089,1.8069089 0 0 1 0.77236442,13.420727 Z M 14.324181,4.3861822 h -3.613818 v 2.7103633 h 3.613818 z m 0,3.6138178 h -3.613818 v 2.710363 h 3.613818 z m 0,3.613818 h -3.613818 v 2.710363 h 2.710364 a 0.90345444,0.90345444 0 0 0 0.903454,-0.903454 z M 9.8069089,14.324181 V 11.613818 H 6.193091 v 2.710363 z m -4.5172723,0 V 11.613818 H 1.6758189 v 1.806909 a 0.90345444,0.90345444 0 0 0 0.9034544,0.903454 z M 1.6758189,10.710363 H 5.2896366 V 8 H 1.6758189 Z m 0,-3.6138175 H 5.2896366 V 4.3861822 H 1.6758189 Z M 6.193091,4.3861822 V 7.0965455 H 9.8069089 V 4.3861822 Z M 9.8069089,8 H 6.193091 v 2.710363 h 3.6138179 z"
     id="path1"
     style="stroke-width:1" />
</svg>
